<svg width="24" height="28" viewBox="0 0 24 28" fill="none" xmlns="http://www.w3.org/2000/svg">
<path fill-rule="evenodd" clip-rule="evenodd" d="M8.9 4H15.07C17.78 4 19.97 5.07 20 7.79V22.97C20 23.14 19.96 23.31 19.88 23.46C19.75 23.7 19.53 23.88 19.26 23.96C19 24.04 18.71 24 18.47 23.86L11.99 20.62L5.5 23.86C5.351 23.939 5.18 23.99 5.01 23.99C4.45 23.99 4 23.53 4 22.97V7.79C4 5.07 6.2 4 8.9 4ZM8.22003 11.62H15.75C16.18 11.62 16.53 11.269 16.53 10.83C16.53 10.39 16.18 10.04 15.75 10.04H8.22003C7.79003 10.04 7.44003 10.39 7.44003 10.83C7.44003 11.269 7.79003 11.62 8.22003 11.62Z" fill="#464255" fill-opacity="0.2"/>
</svg>
