<svg width="24" height="24" viewBox="0 0 24 24" fill="none" xmlns="http://www.w3.org/2000/svg">
<path class="logo-svg" d="M2.5 8.66646V18.6665C2.5 18.8875 2.5878 19.0994 2.74408 19.2557C2.90036 19.412 3.11232 19.4998 3.33333 19.4998H7.5C7.72101 19.4998 7.93297 19.412 8.08925 19.2557C8.24554 19.0994 8.33333 18.8875 8.33333 18.6665V12.8331H11.6667V18.6665C11.6667 18.8875 11.7545 19.0994 11.9107 19.2557C12.067 19.412 12.279 19.4998 12.5 19.4998H16.6667C16.8877 19.4998 17.0996 19.412 17.2559 19.2557C17.4122 19.0994 17.5 18.8875 17.5 18.6665V8.66646C17.5 8.53709 17.4699 8.4095 17.412 8.29379C17.3542 8.17807 17.2702 8.07742 17.1667 7.9998L10.5 2.9998C10.3558 2.89161 10.1803 2.83313 10 2.83313C9.81969 2.83313 9.64425 2.89161 9.5 2.9998L2.83333 7.9998C2.72984 8.07742 2.64583 8.17807 2.58798 8.29379C2.53012 8.4095 2.5 8.53709 2.5 8.66646ZM4.16667 9.08313L10 4.70813L15.8333 9.08313V17.8331H13.3333V11.9998C13.3333 11.7788 13.2455 11.5668 13.0893 11.4105C12.933 11.2543 12.721 11.1665 12.5 11.1665H7.5C7.27899 11.1665 7.06702 11.2543 6.91074 11.4105C6.75446 11.5668 6.66667 11.7788 6.66667 11.9998V17.8331H4.16667V9.08313Z" fill="#6E49BD" />
</svg>
