<svg width="24" height="24" viewBox="0 0 24 24" fill="none" xmlns="http://www.w3.org/2000/svg">
<circle cx="12" cy="12" r="12" fill="#00B074" fill-opacity="0.1"/>
<g clip-path="url(#clip0_136_9892)">
<path d="M11.75 4.56563C11.6906 4.6 11.6125 4.66875 11.5781 4.7125C11.5156 4.79688 11.5156 4.85313 11.5063 8.46875C11.5 11.9156 11.5031 12.1469 11.5531 12.25C11.6375 12.4156 11.7875 12.5 11.9969 12.5C12.2031 12.5 12.3438 12.4281 12.4375 12.275C12.5 12.175 12.5 12.1094 12.5 8.5V4.82813L12.425 4.71563C12.2813 4.50625 11.9719 4.4375 11.75 4.56563Z" fill="#00B074"/>
<path d="M7.76561 5.80312C6.82498 6.43125 5.94061 7.4125 5.39373 8.4375C4.81248 9.51562 4.54061 10.5437 4.50936 11.7687C4.47498 12.9938 4.66873 13.9938 5.13748 15.0687C5.96873 16.9562 7.64686 18.4781 9.59998 19.1188C10.4625 19.4 11.0844 19.5 12 19.5C13.225 19.5 14.2437 19.2656 15.3281 18.7375C17.5906 17.6281 19.1219 15.4781 19.4562 12.9375C19.5187 12.4531 19.5031 11.2688 19.425 10.8281C19.1906 9.475 18.6781 8.325 17.8562 7.29688C17.5125 6.86875 16.8344 6.225 16.4 5.9125C16.2031 5.77187 16.0312 5.65625 16.0187 5.65625C16.0094 5.65625 16 5.93437 16 6.275V6.89375L16.325 7.18125C17.4312 8.15 18.2062 9.60625 18.425 11.1125C18.4906 11.5625 18.4906 12.4406 18.425 12.8844C18.2594 14.0344 17.8344 15.0375 17.1156 15.9813C16.875 16.2969 16.2969 16.875 15.9812 17.1156C14.9125 17.9312 13.7594 18.3687 12.425 18.4719C11.3469 18.5531 10.1844 18.325 9.17186 17.8312C7.63123 17.0781 6.43123 15.725 5.88123 14.125C5.63123 13.4 5.53123 12.8 5.53123 12.0312C5.53123 10.9812 5.72498 10.1125 6.16873 9.20312C6.56561 8.38125 7.04061 7.75625 7.75936 7.10938L8.00311 6.89062L7.99373 6.27187L7.98436 5.65625L7.76561 5.80312Z" fill="#00B074"/>
</g>
<defs>
<clipPath id="clip0_136_9892">
<rect width="16" height="16" fill="white" transform="translate(4 4)"/>
</clipPath>
</defs>
</svg>
