<svg width="32" height="32" viewBox="0 0 32 32" fill="none" xmlns="http://www.w3.org/2000/svg">
<path d="M16 -6.99382e-07C24.8366 -3.13124e-07 32 7.16344 32 16C32 24.8366 24.8366 32 16 32C7.16344 32 8.21708e-07 24.8366 1.20797e-06 16C1.59422e-06 7.16344 7.16344 -1.08564e-06 16 -6.99382e-07Z" fill="#6E49BD"/>
<path d="M26.821 17.5765C27.0145 17.4795 27.1772 17.3306 27.2909 17.1464C27.4047 16.9622 27.4649 16.75 27.4649 16.5335C27.4649 16.317 27.4047 16.1048 27.2909 15.9206C27.1772 15.7364 27.0145 15.5875 26.821 15.4905L10.487 7.32384C10.2845 7.22251 10.0568 7.18231 9.83186 7.20814C9.60688 7.23397 9.39427 7.32472 9.21998 7.46932C9.04569 7.61391 8.91726 7.8061 8.85034 8.02245C8.78342 8.23879 8.78091 8.46993 8.84312 8.68768L10.5103 14.521C10.5801 14.7648 10.7274 14.9793 10.9299 15.1319C11.1324 15.2845 11.3791 15.367 11.6327 15.3668L16.9658 15.3668C17.2752 15.3668 17.5719 15.4898 17.7907 15.7086C18.0095 15.9273 18.1325 16.2241 18.1325 16.5335C18.1325 16.8429 18.0095 17.1397 17.7907 17.3585C17.5719 17.5773 17.2752 17.7002 16.9658 17.7002L11.6327 17.7002C11.3791 17.7 11.1324 17.7825 10.9299 17.9351C10.7274 18.0878 10.5801 18.3022 10.5103 18.546L8.84429 24.3794C8.78195 24.597 8.78431 24.8281 8.85107 25.0445C8.91783 25.2609 9.04611 25.4531 9.22027 25.5978C9.39442 25.7425 9.60692 25.8334 9.83185 25.8595C10.0568 25.8855 10.2844 25.8455 10.487 25.7444L26.821 17.5777L26.821 17.5765Z" fill="white"/>
</svg>
