<svg width="24" height="28" viewBox="0 0 24 28" fill="none" xmlns="http://www.w3.org/2000/svg">
<path d="M21.6935 21.9925L17.1596 17.4586C18.2511 16.0054 18.8404 14.2367 18.8384 12.4192C18.8384 7.77688 15.0615 4 10.4192 4C5.77688 4 2 7.77688 2 12.4192C2 17.0615 5.77688 20.8384 10.4192 20.8384C12.2367 20.8404 14.0054 20.2511 15.4586 19.1596L19.9925 23.6935C20.222 23.8986 20.5213 24.0081 20.829 23.9995C21.1367 23.9909 21.4295 23.8648 21.6472 23.6472C21.8648 23.4295 21.9909 23.1367 21.9995 22.829C22.0081 22.5213 21.8986 22.222 21.6935 21.9925ZM4.40549 12.4192C4.40549 11.2298 4.75818 10.0671 5.41898 9.07816C6.07977 8.08921 7.01899 7.31842 8.11785 6.86325C9.21671 6.40809 10.4259 6.289 11.5924 6.52104C12.759 6.75308 13.8305 7.32583 14.6715 8.16686C15.5126 9.00789 16.0853 10.0794 16.3174 11.246C16.5494 12.4125 16.4303 13.6217 15.9751 14.7205C15.52 15.8194 14.7492 16.7586 13.7602 17.4194C12.7713 18.0802 11.6086 18.4329 10.4192 18.4329C8.82485 18.431 7.29635 17.7968 6.16897 16.6694C5.0416 15.5421 4.4074 14.0135 4.40549 12.4192Z" fill="#DAD9DD"/>
</svg>
